<?xml version="1.0" encoding="utf-8"?>
<!-- Generator: Adobe Illustrator 21.1.0, SVG Export Plug-In . SVG Version: 6.00 Build 0)  -->
<svg version="1.1" id="Layer_1" xmlns="http://www.w3.org/2000/svg" xmlns:xlink="http://www.w3.org/1999/xlink" x="0px" y="0px"
	 viewBox="0 0 54 51" style="enable-background:new 0 0 54 51;" xml:space="preserve">
<style type="text/css">
	.st0{fill:#FFFFFF;}
	.st1{fill-rule:evenodd;clip-rule:evenodd;fill:none;stroke:#68489D;stroke-miterlimit:10;}
</style>
<g>
	<path class="st0" d="M54,25.5c0,2.7-3,5-3.8,7.4c-0.8,2.6,0.2,6.1-1.3,8.2c-1.6,2.1-5.4,2.2-7.5,3.8c-2.2,1.5-3.4,5.1-6,5.9
		c-2.5,0.8-5.6-1.3-8.3-1.3c-2.8,0-5.8,2.1-8.3,1.3c-2.6-0.8-3.8-4.3-6-5.9c-2.2-1.6-5.9-1.6-7.5-3.8c-1.6-2.1-0.5-5.7-1.3-8.2
		C3,30.5,0,28.2,0,25.5c0-2.7,3-5,3.8-7.4c0.8-2.6-0.2-6.1,1.3-8.2c1.6-2.1,5.4-2.2,7.5-3.8c2.2-1.5,3.4-5.1,6-5.9
		c2.5-0.8,5.6,1.3,8.3,1.3c2.8,0,5.8-2.1,8.3-1.3c2.6,0.8,3.8,4.3,6,5.9c2.2,1.6,5.9,1.6,7.5,3.8c1.6,2.1,0.5,5.7,1.3,8.2
		C51,20.5,54,22.8,54,25.5z"/>
	<path class="st1" d="M27,5c11.3,0,20.5,9.2,20.5,20.5C47.5,36.8,38.3,46,27,46S6.5,36.8,6.5,25.5C6.5,14.2,15.7,5,27,5z"/>
</g>
</svg>
